<svg id="Layer_1" data-name="Layer 1" xmlns="http://www.w3.org/2000/svg" viewBox="0 0 734.22 210.75"><defs><style>.cls-1{fill:#364d56;}.cls-2{fill:#f68827;}</style></defs><title>logo</title><g id="becaz"><path class="cls-1" d="M296.34,116.47a33,33,0,0,1,19.89,6.63,21.94,21.94,0,0,1,6.06,7.08,18.09,18.09,0,0,1,2.17,8.63V188a18.23,18.23,0,0,1-2.17,8.63,21.84,21.84,0,0,1-6.06,7.08,30.49,30.49,0,0,1-9,4.72,33.94,33.94,0,0,1-10.86,1.73H244.89V72.88H265v43.59ZM265,147.72v48.14h30.64a9.56,9.56,0,0,0,6.17-2,6,6,0,0,0,2.52-4.9v-51a6.31,6.31,0,0,0-2.52-5,9.37,9.37,0,0,0-6.17-2.09H265v16.89Z"/><path class="cls-1" d="M366.31,189a6.25,6.25,0,0,0,2.51,4.72,9.11,9.11,0,0,0,6.18,2.18h22.64q5.72,0,7.09-3.63a21.27,21.27,0,0,0,1.37-7.63h19v4.54a17.33,17.33,0,0,1-2.52,8.17,24.93,24.93,0,0,1-5.95,6.72,27.71,27.71,0,0,1-8.57,4.54,32.78,32.78,0,0,1-10.4,1.63H374.32a32.7,32.7,0,0,1-10.75-1.73,29.08,29.08,0,0,1-8.8-4.72,23.38,23.38,0,0,1-5.95-6.9,17.07,17.07,0,0,1-2.17-8.45V141a24.31,24.31,0,0,1,1.83-9.35,21.69,21.69,0,0,1,5.49-7.81,28,28,0,0,1,8.69-5.36,31.47,31.47,0,0,1,11.66-2h23.32a31.73,31.73,0,0,1,11.55,2,27.18,27.18,0,0,1,8.69,5.27,21.71,21.71,0,0,1,5.37,7.63,23.68,23.68,0,0,1,1.83,9.26v33.24H366.31V189Zm39.1-29.06V137.73a5.82,5.82,0,0,0-2.63-4.72,9.75,9.75,0,0,0-6.06-2H375a9.75,9.75,0,0,0-6.06,2,5.83,5.83,0,0,0-2.63,4.72v22.16Z"/><path class="cls-1" d="M504.88,190.4c.3-.36.42-1.33.34-2.91s-.11-2.54-.11-2.91H523.4v3a7.08,7.08,0,0,1-.46,3q-1.16,8.17-8.69,13.9T496,210.2H473.32a31.6,31.6,0,0,1-10.63-1.73,29.57,29.57,0,0,1-8.69-4.72,23.23,23.23,0,0,1-5.95-6.9,17.07,17.07,0,0,1-2.17-8.45V138.27a17.1,17.1,0,0,1,2.17-8.45,23.23,23.23,0,0,1,5.95-6.9,29.45,29.45,0,0,1,8.69-4.72,31.9,31.9,0,0,1,10.63-1.73H496a31.93,31.93,0,0,1,10,1.54,30.15,30.15,0,0,1,8.23,4.09,22.45,22.45,0,0,1,5.83,6.08,17.41,17.41,0,0,1,2.74,7.54,9,9,0,0,1,.57,3.18c.08,1.52.12,2.57.12,3.18H505.11c0-.48,0-1.48.11-3a7.21,7.21,0,0,0-3.2-6.72,9.71,9.71,0,0,0-5.37-1.54H474a9.3,9.3,0,0,0-5.95,2,6,6,0,0,0-2.52,4.9v51.22a5.88,5.88,0,0,0,2.52,4.72,9.3,9.3,0,0,0,5.95,2h22.64a9.6,9.6,0,0,0,5.49-1.54A6,6,0,0,0,504.88,190.4Z"/><path class="cls-1" d="M603.2,137.91a6.06,6.06,0,0,0-2.63-4.81,9.49,9.49,0,0,0-6.06-2.09H574.39a9.85,9.85,0,0,0-4.92,1,6.16,6.16,0,0,0-2.51,2.63,11,11,0,0,0-1,3.72,38.23,38.23,0,0,0-.23,4.09H547.64a8.44,8.44,0,0,0-.12-1.54,8.54,8.54,0,0,1-.11-1.54,19.53,19.53,0,0,1,2.06-8.72,23.17,23.17,0,0,1,5.6-7.27,27.88,27.88,0,0,1,8.69-5,32.36,32.36,0,0,1,11.32-1.91H595.2A33,33,0,0,1,606,118.2a29.2,29.2,0,0,1,8.8,4.72,22.83,22.83,0,0,1,6,7,17.6,17.6,0,0,1,2.17,8.54V210.2h-51a31.6,31.6,0,0,1-10.63-1.73,29.57,29.57,0,0,1-8.69-4.72,23.23,23.23,0,0,1-5.95-6.9,17.07,17.07,0,0,1-2.17-8.45V175a17.6,17.6,0,0,1,2.17-8.54,22.72,22.72,0,0,1,5.95-7,29.57,29.57,0,0,1,8.69-4.72A31.9,31.9,0,0,1,571.88,153h31.33V137.91Zm0,28.88H572.56c-3.51,0-5.79,1.09-6.86,3.27a15.85,15.85,0,0,0-1.6,7.08V189a6.46,6.46,0,0,0,2.4,4.63,8.44,8.44,0,0,0,6.06,2.27H603.2V166.79Z"/><path class="cls-1" d="M713,195.85V184.41h17.15V210.2h-88l29.72-39.6L701.52,131h-37v11.44H647.33v-26h86.89q-14.64,19.44-29.38,39.23t-30.07,40.14H713Z"/></g><g id="Layer_3" data-name="Layer 3"><rect class="cls-2" x="140.52" width="70.25" height="70.25"/><polygon class="cls-2" points="0 70.25 0 210.75 140.52 210.75 140.52 140.5 70.27 140.5 70.27 70.25 0 70.25"/></g></svg>