<?xml version="1.0" encoding="utf-8"?>
<!-- Generator: Adobe Illustrator 23.0.4, SVG Export Plug-In . SVG Version: 6.00 Build 0)  -->
<svg version="1.1" xmlns="http://www.w3.org/2000/svg" xmlns:xlink="http://www.w3.org/1999/xlink" x="0px" y="0px"
	 viewBox="0 0 734.23 281" style="enable-background:new 0 0 734.23 281;" xml:space="preserve">
<style type="text/css">
	.st0{fill:#fff;}
	.st1{fill:#fff;}
</style>
<g id="becaz">
	<g>
		<path class="st0" d="M296.34,116.47c3.81,0,7.43,0.61,10.86,1.82c3.43,1.21,6.44,2.82,9.03,4.81c2.59,2,4.61,4.36,6.06,7.08
			c1.45,2.72,2.17,5.6,2.17,8.63v49.23c0,3.03-0.73,5.9-2.17,8.63c-1.45,2.72-3.47,5.09-6.06,7.08c-2.59,2-5.6,3.57-9.03,4.72
			c-3.43,1.15-7.05,1.73-10.86,1.73h-51.45V72.88h20.12v43.59H296.34z M265.02,147.72v48.14h30.64c2.44,0,4.49-0.66,6.17-2
			c1.68-1.33,2.52-2.97,2.52-4.9v-51.04c0-1.94-0.84-3.6-2.52-5c-1.68-1.39-3.74-2.09-6.17-2.09h-30.64V147.72z"/>
		<path class="st0" d="M366.31,188.95c0,1.7,0.84,3.27,2.51,4.72c1.68,1.45,3.73,2.18,6.18,2.18h22.64c3.81,0,6.17-1.21,7.09-3.63
			c0.92-2.42,1.37-4.96,1.37-7.63h18.98v4.54c-0.15,2.91-0.99,5.63-2.52,8.17c-1.53,2.54-3.51,4.79-5.95,6.72
			c-2.44,1.94-5.3,3.45-8.57,4.54c-3.28,1.09-6.75,1.63-10.4,1.63h-23.32c-3.81,0-7.39-0.57-10.75-1.73
			c-3.36-1.15-6.29-2.72-8.8-4.72c-2.51-2-4.5-4.3-5.95-6.9c-1.45-2.6-2.17-5.42-2.17-8.45V141c0-3.27,0.61-6.39,1.83-9.35
			c1.22-2.97,3.05-5.57,5.49-7.81c2.44-2.24,5.33-4.02,8.69-5.36c3.35-1.33,7.24-2,11.66-2h23.32c4.27,0,8.12,0.67,11.55,2
			c3.43,1.33,6.32,3.09,8.69,5.27c2.36,2.18,4.15,4.72,5.37,7.63c1.22,2.91,1.83,5.99,1.83,9.26v33.24h-58.77V188.95z
			 M405.41,159.89v-22.16c0-1.82-0.88-3.39-2.63-4.72c-1.75-1.33-3.77-2-6.06-2H375c-2.29,0-4.31,0.67-6.06,2
			c-1.75,1.33-2.63,2.91-2.63,4.72v22.16H405.41z"/>
		<path class="st0" d="M504.88,190.4c0.3-0.36,0.42-1.33,0.34-2.91c-0.08-1.57-0.11-2.54-0.11-2.91h18.29c0,0.61,0,1.61,0,3
			c0,1.39-0.15,2.39-0.46,3c-0.77,5.45-3.66,10.08-8.69,13.9c-5.03,3.81-11.13,5.72-18.29,5.72h-22.64c-3.81,0-7.36-0.57-10.63-1.73
			c-3.28-1.15-6.17-2.72-8.69-4.72c-2.52-2-4.5-4.3-5.95-6.9c-1.45-2.6-2.17-5.42-2.17-8.45v-50.13c0-3.03,0.72-5.84,2.17-8.45
			c1.45-2.6,3.43-4.9,5.95-6.9c2.51-2,5.41-3.57,8.69-4.72c3.28-1.15,6.82-1.73,10.63-1.73h22.64c3.5,0,6.82,0.52,9.95,1.54
			c3.12,1.03,5.87,2.39,8.23,4.09c2.36,1.7,4.31,3.72,5.83,6.08c1.52,2.36,2.44,4.88,2.74,7.54c0.3,0.61,0.49,1.67,0.57,3.18
			c0.08,1.52,0.12,2.57,0.12,3.18h-18.29c0-0.48,0.04-1.48,0.11-3c0.08-1.51-0.04-2.51-0.34-3c-0.31-1.45-1.26-2.69-2.86-3.72
			c-1.6-1.03-3.39-1.54-5.37-1.54h-22.64c-2.29,0-4.27,0.67-5.95,2c-1.68,1.33-2.52,2.97-2.52,4.9v51.22c0,1.82,0.84,3.39,2.52,4.72
			c1.68,1.33,3.66,2,5.95,2h22.64c2.13,0,3.96-0.51,5.49-1.54C503.66,193.1,504.57,191.85,504.88,190.4z"/>
		<path class="st0" d="M603.2,137.91c0-1.82-0.88-3.42-2.63-4.81c-1.76-1.39-3.77-2.09-6.06-2.09h-20.12c-2.14,0-3.77,0.33-4.92,1
			c-1.14,0.67-1.98,1.54-2.51,2.63c-0.54,1.09-0.88,2.33-1.03,3.72c-0.15,1.39-0.23,2.76-0.23,4.09h-18.06
			c0-0.6-0.04-1.12-0.12-1.54c-0.08-0.42-0.11-0.94-0.11-1.54c0-3.03,0.69-5.93,2.06-8.72c1.37-2.78,3.24-5.21,5.6-7.27
			c2.36-2.06,5.26-3.72,8.69-5c3.43-1.27,7.2-1.91,11.32-1.91h20.12c3.81,0,7.39,0.58,10.75,1.73c3.35,1.15,6.29,2.72,8.8,4.72
			c2.52,2,4.5,4.33,5.95,6.99c1.45,2.67,2.17,5.51,2.17,8.54v71.75h-50.99c-3.81,0-7.36-0.57-10.63-1.73
			c-3.28-1.15-6.17-2.72-8.69-4.72c-2.52-2-4.5-4.3-5.95-6.9c-1.45-2.6-2.17-5.42-2.17-8.45v-13.44c0-3.03,0.72-5.87,2.17-8.54
			c1.45-2.66,3.43-5,5.95-6.99c2.52-2,5.41-3.57,8.69-4.72c3.28-1.15,6.82-1.73,10.63-1.73h31.33V137.91z M603.2,166.79h-30.64
			c-3.51,0-5.79,1.09-6.86,3.27c-1.07,2.18-1.6,4.54-1.6,7.08v11.81c0,1.58,0.8,3.12,2.4,4.63c1.6,1.52,3.62,2.27,6.06,2.27h30.64
			V166.79z"/>
		<path class="st0" d="M712.96,195.85v-11.44h17.15v25.79h-88.04c9.91-13.2,19.81-26.4,29.72-39.6c9.91-13.2,19.82-26.4,29.73-39.6
			h-37.04v11.44h-17.15v-25.97h86.89c-9.76,12.96-19.55,26.04-29.38,39.23c-9.83,13.2-19.86,26.58-30.07,40.14H712.96z"/>
	</g>
</g>
<g id="Layer_3">
	<rect x="140.52" class="st1" width="70.25" height="70.25"/>
	<polygon class="st1" points="0,70.25 0,210.75 140.52,210.75 140.52,140.5 70.27,140.5 70.27,70.25 	"/>
</g>
</svg>
